<svg xmlns="http://www.w3.org/2000/svg" version="1.1" xmlns:xlink="http://www.w3.org/1999/xlink" xmlns:svgjs="http://svgjs.dev/svgjs" width="1000" height="1000" viewBox="0 0 1000 1000"><rect width="1000" height="1000" fill="#f7d65a"></rect><g transform="matrix(0.7,0,0,0.7,150,281.25)"><svg viewBox="0 0 576 360" data-background-color="#f7d65a" preserveAspectRatio="xMidYMid meet" height="625" width="1000" xmlns="http://www.w3.org/2000/svg" xmlns:xlink="http://www.w3.org/1999/xlink"><g id="tight-bounds" transform="matrix(1,0,0,1,0,0)"><svg viewBox="0 0 576 360" height="360" width="576"><g><svg></svg></g><g><svg viewBox="0 0 576 360" height="360" width="576"><g><path xmlns="http://www.w3.org/2000/svg" d="M132.115 90l155.885-90 155.885 90v180l-155.885 90-155.885-90z" fill="#ffffff" fill-rule="nonzero" stroke="none" stroke-width="1" stroke-linecap="butt" stroke-linejoin="miter" stroke-miterlimit="10" stroke-dasharray="" stroke-dashoffset="0" font-family="none" font-weight="none" font-size="none" text-anchor="none" style="mix-blend-mode: normal" data-fill-palette-color="tertiary"></path></g><g transform="matrix(1,0,0,1,172.8,139.26117440955224)"><svg viewBox="0 0 230.4 81.47765118089552" height="81.47765118089552" width="230.4"><g><svg viewBox="0 0 230.4 81.47765118089552" height="81.47765118089552" width="230.4"><g transform="matrix(1,0,0,1,0,50.35645715104478)"><svg viewBox="0 0 230.4 31.121194029850745" height="31.121194029850745" width="230.4"><g id="textblocktransform"><svg viewBox="0 0 230.4 31.121194029850745" height="31.121194029850745" width="230.4" id="textblock"><g><svg viewBox="0 0 230.4 31.121194029850745" height="31.121194029850745" width="230.4"><g transform="matrix(1,0,0,1,0,0)"><svg width="230.4" viewBox="3.5199999809265137 -37.70000076293945 327.1200256347656 44.19000244140625" height="31.121194029850745" data-palette-color="#f7d65a"><path d="M38.72-24.56L38.72-24.56Q38.72-20.56 36.28-18.26 33.84-15.97 29.83-15.77L29.83-15.77Q34.67-7.71 38.28 0.73L38.28 0.73 24.02 1.07Q23.63-2.88 22.85-6.2 22.07-9.52 20.65-13.18L20.65-13.18Q19.04-13.09 17.46-12.94 15.87-12.79 14.31-12.7L14.31-12.7 14.55-1.61Q11.77-1.46 8.98-1.46L8.98-1.46Q7.57-1.46 6.23-1.51 4.88-1.56 3.52-1.71L3.52-1.71Q3.86-6.2 4.15-10.67 4.44-15.14 4.49-19.58L4.49-19.58Q4.64-27.49 4.93-35.4L4.93-35.4Q9.52-35.64 14.09-35.94 18.65-36.23 23.24-36.23L23.24-36.23Q24.41-36.23 25.78-36.18 27.15-36.13 28.54-35.91 29.93-35.69 31.23-35.3 32.52-34.91 33.54-34.28L33.54-34.28Q36.04-32.71 37.38-30.1 38.72-27.49 38.72-24.56ZM27.39-25.34L27.39-25.34Q27.39-25.73 27.37-26.42 27.34-27.1 27.25-27.81 27.15-28.52 26.95-29.13 26.76-29.74 26.42-30.03L26.42-30.03Q26.17-30.22 25.59-30.32 25-30.42 24.34-30.49 23.68-30.57 23.07-30.59 22.46-30.62 22.22-30.62L22.22-30.62Q20.26-30.62 18.38-30.42 16.5-30.22 14.65-29.93L14.65-29.93 15.97-20.46Q17.04-20.21 18.21-20.12 19.38-20.02 20.51-20.02L20.51-20.02Q21-20.02 21.95-20.07 22.9-20.12 23.9-20.26 24.9-20.41 25.76-20.68 26.61-20.95 26.95-21.39L26.95-21.39Q27.1-21.58 27.2-22.14 27.29-22.71 27.32-23.32 27.34-23.93 27.37-24.51 27.39-25.1 27.39-25.34ZM76.66-18.12L76.66-18.12Q70.26-17.77 63.91-17.55 57.57-17.33 51.17-17.09L51.17-17.09Q51.12-16.89 51.12-16.7 51.12-16.5 51.12-16.31L51.12-16.31Q51.12-14.65 51.88-13.77 52.63-12.89 53.76-12.52 54.88-12.16 56.25-12.11 57.61-12.06 58.79-12.06L58.79-12.06Q62.06-12.06 65.33-12.28 68.6-12.5 71.92-12.74L71.92-12.74 72.31-4.98Q69.09-4.83 65.89-4.74 62.69-4.64 59.47-4.64L59.47-4.64Q58.79-4.64 56.96-4.66 55.12-4.69 53.05-4.81 50.97-4.93 49.17-5.13 47.36-5.32 46.77-5.66L46.77-5.66Q45.26-6.54 44.41-7.91 43.55-9.28 43.09-10.89 42.62-12.5 42.45-14.18 42.28-15.87 42.23-17.43L42.23-17.43Q42.19-17.68 42.21-17.94 42.23-18.21 42.23-18.46L42.23-18.46Q42.23-21.04 42.8-23.27 43.36-25.49 44.87-27.59L44.87-27.59Q45.9-29.05 47.9-30.03 49.9-31.01 52.24-31.57 54.59-32.13 56.93-32.35 59.27-32.57 60.98-32.57L60.98-32.57Q62.5-32.57 64.69-32.3 66.89-32.03 69.06-31.4 71.24-30.76 73-29.76 74.75-28.76 75.39-27.29L75.39-27.29Q75.49-27 75.61-26.29 75.73-25.59 75.88-24.68 76.02-23.78 76.14-22.75 76.27-21.73 76.36-20.8 76.46-19.87 76.54-19.14 76.61-18.41 76.66-18.12ZM53.71-21.14L70.02-21.68Q69.72-23.83 68.92-25.07 68.11-26.32 66.92-26.93 65.72-27.54 64.18-27.71 62.64-27.88 60.89-27.88L60.89-27.88Q60.3-27.88 59.42-27.86 58.54-27.83 57.66-27.71 56.78-27.59 56-27.34 55.22-27.1 54.78-26.66L54.78-26.66Q54.44-26.37 54.22-25.85 54-25.34 53.85-24.76 53.71-24.17 53.64-23.61 53.56-23.05 53.56-22.66L53.56-22.66Q53.56-21.88 53.71-21.14L53.71-21.14ZM114.79-22.02L114.79-22.02Q114.79-17.92 114.5-13.87 114.2-9.81 113.91-5.76L113.91-5.76Q108.44-5.27 103.02-4.93 97.6-4.59 92.13-4.59L92.13-4.59Q91.65-4.59 90.33-4.61 89.01-4.64 87.54-4.71 86.08-4.79 84.76-4.91 83.44-5.03 83-5.27L83-5.27Q81.39-6.15 80.76-7.5 80.12-8.84 80.12-10.55L80.12-10.55Q80.12-11.13 80.17-12.11 80.22-13.09 80.37-14.16 80.51-15.23 80.76-16.16 81-17.09 81.34-17.53L81.34-17.53Q81.78-18.12 83.34-18.53 84.91-18.95 87.08-19.19 89.25-19.43 91.77-19.58 94.28-19.73 96.58-19.8 98.87-19.87 100.68-19.87 102.49-19.87 103.27-19.87L103.27-19.87Q103.41-20.95 103.41-21.97L103.41-21.97Q103.41-22.07 103.41-22.49 103.41-22.9 103.36-23L103.36-23Q103.22-23.29 102.44-23.49 101.66-23.68 100.51-23.78 99.36-23.88 98.02-23.95 96.67-24.02 95.41-24.02 94.14-24.02 93.16-24.02 92.18-24.02 91.74-24.02L91.74-24.02Q88.67-24.02 85.59-23.9 82.51-23.78 79.44-23.68L79.44-23.68Q79.63-25.54 79.76-27.44 79.88-29.35 79.78-31.2L79.78-31.2Q83.34-31.84 86.93-32.1 90.52-32.37 94.18-32.37L94.18-32.37Q95.5-32.37 97.07-32.35 98.63-32.32 100.19-32.25 101.75-32.18 103.29-32.03 104.83-31.88 106.15-31.64L106.15-31.64Q107.51-31.4 108.86-30.76 110.2-30.13 111.37-29.2 112.54-28.27 113.42-27.08 114.3-25.88 114.69-24.51L114.69-24.51Q114.74-24.37 114.77-24.02 114.79-23.68 114.79-23.27 114.79-22.85 114.79-22.51 114.79-22.17 114.79-22.02ZM103.9-10.55L103.9-10.55 103.9-16.8Q102.49-16.85 101.07-16.87 99.65-16.89 98.24-16.89L98.24-16.89Q97.94-16.89 96.6-16.87 95.26-16.85 93.72-16.75 92.18-16.65 90.91-16.5 89.64-16.36 89.45-16.06L89.45-16.06Q89.2-15.67 89.13-15.26 89.06-14.84 89.06-14.4L89.06-14.4Q89.06-14.06 89.11-13.48 89.16-12.89 89.28-12.26 89.4-11.62 89.55-11.08 89.69-10.55 89.94-10.3L89.94-10.3Q90.13-10.06 90.6-9.94 91.06-9.81 91.6-9.74 92.13-9.67 92.67-9.64 93.21-9.62 93.5-9.62L93.5-9.62Q94.67-9.62 96.02-9.72 97.36-9.81 98.75-9.94 100.14-10.06 101.46-10.23 102.78-10.4 103.9-10.55ZM153.51-27.15L153.51-27.15Q153.51-25.1 153.51-23.1 153.51-21.09 153.41-19.04L153.41-19.04Q153.31-14.55 153.02-10.13 152.73-5.71 152.39-1.27L152.39-1.27Q147.94-0.98 143.6-0.78 139.25-0.59 134.81-0.59L134.81-0.59Q134.22-0.59 132.95-0.61 131.68-0.63 130.24-0.68 128.8-0.73 127.53-0.85 126.26-0.98 125.68-1.22L125.68-1.22Q121.92-2.59 120.09-4.91 118.25-7.23 118.25-11.33L118.25-11.33 118.25-12.11Q118.35-13.92 118.55-15.33 118.74-16.75 119.26-17.92 119.77-19.09 120.67-20.09 121.57-21.09 123.14-22.12L123.14-22.12Q124.21-22.85 125.68-23.34 127.14-23.83 128.73-24.17 130.31-24.51 131.85-24.66 133.39-24.8 134.66-24.8L134.66-24.8Q137-24.8 139.32-24.46 141.64-24.12 143.94-23.44L143.94-23.44Q143.69-26.66 143.52-29.81 143.35-32.96 143.01-36.13L143.01-36.13Q145.65-36.38 148.23-36.67 150.82-36.96 153.41-37.26L153.41-37.26Q153.46-34.72 153.48-32.2 153.51-29.69 153.51-27.15ZM146.04-12.4L146.04-12.4Q146.04-13.53 146.04-14.65 146.04-15.77 145.99-16.89L145.99-16.89Q142.91-17.04 139.84-17.04L139.84-17.04Q139.4-17.04 137.98-17.02 136.56-16.99 134.98-16.92 133.39-16.85 132.02-16.67 130.66-16.5 130.27-16.26L130.27-16.26Q129.53-15.72 129.36-14.75 129.19-13.77 129.19-12.94L129.19-12.94Q129.19-12.55 129.24-11.89 129.29-11.23 129.41-10.52 129.53-9.81 129.73-9.2 129.92-8.59 130.17-8.3L130.17-8.3Q130.31-8.15 130.68-8.06 131.05-7.96 131.49-7.91 131.93-7.86 132.34-7.86 132.76-7.86 133-7.86L133-7.86Q135.78-7.86 138.52-8.11 141.25-8.35 144.04-8.74L144.04-8.74Q144.43-8.84 144.96-8.86 145.5-8.89 145.94-9.03L145.94-9.03 145.94-9.13Q145.94-9.18 145.99-9.23L145.99-9.23Q146.09-10.01 146.06-10.79 146.04-11.57 146.04-12.4ZM192.23-9.62L192.23-9.62Q192.23-9.08 192.23-8.06 192.23-7.03 192.18-5.74 192.13-4.44 192.06-3.05 191.98-1.66 191.88-0.42 191.79 0.83 191.62 1.78 191.45 2.73 191.25 3.13L191.25 3.13Q190.42 4.44 189.71 5.15 189 5.86 188.17 6.15 187.34 6.45 186.29 6.47 185.24 6.49 183.83 6.49L183.83 6.49Q179.14 6.49 174.5 6.13 169.86 5.76 165.22 5.27L165.22 5.27 165.22-1.42Q165.66-1.42 167.15-1.44 168.64-1.46 170.64-1.51 172.65-1.56 174.89-1.66 177.14-1.76 179.09-1.9 181.04-2.05 182.46-2.25 183.88-2.44 184.22-2.73L184.22-2.73Q184.66-3.08 184.93-3.78 185.2-4.49 185.32-5.27 185.44-6.05 185.49-6.84 185.54-7.62 185.54-8.11L185.54-8.11Q185.54-8.59 185.54-9.03 185.54-9.47 185.49-10.01L185.49-10.01Q184.76-8.35 183.53-7.52 182.31-6.69 180.8-6.35 179.29-6.01 177.63-5.98 175.97-5.96 174.45-5.96L174.45-5.96Q171.28-5.96 168.32-6.23 165.37-6.49 163.1-7.62 160.83-8.74 159.44-11.01 158.05-13.28 158.05-17.29L158.05-17.29Q158.05-21.24 158.58-25.17 159.12-29.1 159.95-32.96L159.95-32.96 170.25-32.86Q169.42-29.79 168.79-26.61 168.15-23.44 168.15-20.21L168.15-20.21Q168.15-18.51 168.4-17.43 168.64-16.36 169.28-15.7 169.91-15.04 171.03-14.79 172.16-14.55 173.87-14.55L173.87-14.55Q174.55-14.55 175.55-14.65 176.55-14.75 177.6-14.92 178.65-15.09 179.6-15.38 180.56-15.67 181.09-16.11L181.09-16.11Q181.29-16.26 181.44-17.09 181.58-17.92 181.68-19.07 181.78-20.21 181.83-21.53 181.87-22.85 181.9-24.02 181.92-25.2 181.92-26.05 181.92-26.9 181.92-27.15L181.92-27.15Q181.92-28.81 181.92-30.44 181.92-32.08 181.83-33.74L181.83-33.74Q184.22-33.5 186.54-33.33 188.86-33.15 191.25-33.06L191.25-33.06Q191.45-28.32 191.66-23.68 191.88-19.04 192.13-14.31L192.13-14.31Q192.23-13.13 192.23-11.94 192.23-10.74 192.23-9.62ZM255.5-24.17L255.5-24.17Q255.5-23.34 255.4-22.61 255.31-21.88 255.06-21.09L255.06-21.09Q254.77-20.26 253.94-19.51 253.11-18.75 252.08-18.09 251.06-17.43 249.99-16.97 248.91-16.5 248.18-16.26L248.18-16.26Q248.42-16.21 249.15-16.09 249.89-15.97 250.69-15.77 251.5-15.58 252.18-15.31 252.87-15.04 253.06-14.75L253.06-14.75Q253.4-14.16 253.62-13.31 253.84-12.45 253.94-11.5 254.04-10.55 254.09-9.64 254.14-8.74 254.14-8.06L254.14-8.06Q254.14-7.81 254.14-7.54 254.14-7.28 254.09-7.03L254.09-7.03Q253.99-6.54 253.4-5.74 252.82-4.93 252.04-4.1 251.25-3.27 250.5-2.56 249.74-1.86 249.35-1.56L249.35-1.56Q248.81-1.17 248.3-0.88 247.79-0.59 247.2-0.34L247.2-0.34Q246.76-0.15 245.32-0.05 243.88 0.05 242.27 0.12 240.66 0.2 239.24 0.22 237.83 0.24 237.34 0.24L237.34 0.24Q233.43 0.24 229.62 0.12 225.82 0 221.91-0.2L221.91-0.2Q222.01-3.66 222.06-7.1 222.1-10.55 222.1-14.06L222.1-14.06Q222.1-18.02 221.86-21.92 221.62-25.83 221.32-29.74L221.32-29.74 217.56-30.08Q217.32-32.03 217.2-33.91 217.07-35.79 216.88-37.7L216.88-37.7Q220.88-37.6 224.89-37.5 228.89-37.4 232.9-37.3L232.9-37.3Q234.6-37.26 237.24-36.99 239.88-36.72 242.64-36.28 245.4-35.84 247.86-35.21 250.33-34.57 251.74-33.79L251.74-33.79Q252.82-33.2 253.53-32.03 254.23-30.86 254.67-29.47 255.11-28.08 255.31-26.66 255.5-25.24 255.5-24.17ZM242.51-24.37L242.51-24.37Q242.51-24.85 242.47-25.61 242.42-26.37 242.27-27.15 242.12-27.93 241.88-28.61 241.64-29.3 241.29-29.74L241.29-29.74Q241.2-29.88 240.76-29.98 240.32-30.08 239.8-30.13 239.29-30.18 238.8-30.18 238.32-30.18 238.17-30.18L238.17-30.18Q235.73-30.18 233.33-29.91 230.94-29.64 228.55-29.25L228.55-29.25Q228.84-26.86 229.09-24.46 229.33-22.07 229.67-19.68L229.67-19.68Q230.26-19.68 231.97-19.78 233.68-19.87 235.61-20.02 237.53-20.17 239.19-20.39 240.85-20.61 241.34-20.9L241.34-20.9Q242.17-21.44 242.34-22.46 242.51-23.49 242.51-24.37ZM242.12-10.6L242.12-10.6Q242.12-11.33 241.93-12.08 241.73-12.84 241.15-13.33L241.15-13.33Q241-13.48 240.46-13.57 239.93-13.67 239.34-13.7 238.75-13.72 238.22-13.75 237.68-13.77 237.49-13.77L237.49-13.77Q235.39-13.77 233.33-13.55 231.28-13.33 229.23-13.09L229.23-13.09 230.01-6.88Q230.26-6.88 231.16-6.93 232.07-6.98 233.26-7.06 234.46-7.13 235.8-7.23 237.14-7.32 238.32-7.47 239.49-7.62 240.32-7.79 241.15-7.96 241.34-8.2L241.34-8.2Q241.78-8.74 241.95-9.33 242.12-9.91 242.12-10.6ZM293.68-18.12L293.68-18.12Q287.29-17.77 280.94-17.55 274.59-17.33 268.2-17.09L268.2-17.09Q268.15-16.89 268.15-16.7 268.15-16.5 268.15-16.31L268.15-16.31Q268.15-14.65 268.9-13.77 269.66-12.89 270.78-12.52 271.91-12.16 273.27-12.11 274.64-12.06 275.81-12.06L275.81-12.06Q279.08-12.06 282.36-12.28 285.63-12.5 288.95-12.74L288.95-12.74 289.34-4.98Q286.12-4.83 282.92-4.74 279.72-4.64 276.5-4.64L276.5-4.64Q275.81-4.64 273.98-4.66 272.15-4.69 270.08-4.81 268-4.93 266.19-5.13 264.39-5.32 263.8-5.66L263.8-5.66Q262.29-6.54 261.43-7.91 260.58-9.28 260.11-10.89 259.65-12.5 259.48-14.18 259.31-15.87 259.26-17.43L259.26-17.43Q259.21-17.68 259.24-17.94 259.26-18.21 259.26-18.46L259.26-18.46Q259.26-21.04 259.82-23.27 260.38-25.49 261.9-27.59L261.9-27.59Q262.92-29.05 264.92-30.03 266.93-31.01 269.27-31.57 271.61-32.13 273.96-32.35 276.3-32.57 278.01-32.57L278.01-32.57Q279.52-32.57 281.72-32.3 283.92-32.03 286.09-31.4 288.26-30.76 290.02-29.76 291.78-28.76 292.41-27.29L292.41-27.29Q292.51-27 292.63-26.29 292.76-25.59 292.9-24.68 293.05-23.78 293.17-22.75 293.29-21.73 293.39-20.8 293.49-19.87 293.56-19.14 293.63-18.41 293.68-18.12ZM270.73-21.14L287.04-21.68Q286.75-23.83 285.94-25.07 285.14-26.32 283.94-26.93 282.75-27.54 281.21-27.71 279.67-27.88 277.91-27.88L277.91-27.88Q277.33-27.88 276.45-27.86 275.57-27.83 274.69-27.71 273.81-27.59 273.03-27.34 272.25-27.1 271.81-26.66L271.81-26.66Q271.47-26.37 271.25-25.85 271.03-25.34 270.88-24.76 270.73-24.17 270.66-23.61 270.59-23.05 270.59-22.66L270.59-22.66Q270.59-21.88 270.73-21.14L270.73-21.14ZM330.64-18.12L330.64-18.12Q324.25-17.77 317.9-17.55 311.55-17.33 305.16-17.09L305.16-17.09Q305.11-16.89 305.11-16.7 305.11-16.5 305.11-16.31L305.11-16.31Q305.11-14.65 305.86-13.77 306.62-12.89 307.74-12.52 308.87-12.16 310.23-12.11 311.6-12.06 312.77-12.06L312.77-12.06Q316.04-12.06 319.32-12.28 322.59-12.5 325.91-12.74L325.91-12.74 326.3-4.98Q323.08-4.83 319.88-4.74 316.68-4.64 313.46-4.64L313.46-4.64Q312.77-4.64 310.94-4.66 309.11-4.69 307.04-4.81 304.96-4.93 303.15-5.13 301.35-5.32 300.76-5.66L300.76-5.66Q299.25-6.54 298.39-7.91 297.54-9.28 297.07-10.89 296.61-12.5 296.44-14.18 296.27-15.87 296.22-17.43L296.22-17.43Q296.17-17.68 296.2-17.94 296.22-18.21 296.22-18.46L296.22-18.46Q296.22-21.04 296.78-23.27 297.34-25.49 298.86-27.59L298.86-27.59Q299.88-29.05 301.88-30.03 303.89-31.01 306.23-31.57 308.57-32.13 310.92-32.35 313.26-32.57 314.97-32.57L314.97-32.57Q316.48-32.57 318.68-32.3 320.88-32.03 323.05-31.4 325.22-30.76 326.98-29.76 328.74-28.76 329.37-27.29L329.37-27.29Q329.47-27 329.59-26.29 329.72-25.59 329.86-24.68 330.01-23.78 330.13-22.75 330.25-21.73 330.35-20.8 330.45-19.87 330.52-19.14 330.6-18.41 330.64-18.12ZM307.69-21.14L324-21.68Q323.71-23.83 322.9-25.07 322.1-26.32 320.9-26.93 319.71-27.54 318.17-27.71 316.63-27.88 314.87-27.88L314.87-27.88Q314.29-27.88 313.41-27.86 312.53-27.83 311.65-27.71 310.77-27.59 309.99-27.34 309.21-27.1 308.77-26.66L308.77-26.66Q308.43-26.37 308.21-25.85 307.99-25.34 307.84-24.76 307.69-24.17 307.62-23.61 307.55-23.05 307.55-22.66L307.55-22.66Q307.55-21.88 307.69-21.14L307.69-21.14Z" opacity="1" transform="matrix(1,0,0,1,0,0)" fill="#f7d65a" class="undefined-text-0" data-fill-palette-color="quaternary" id="text-0"></path></svg></g></svg></g></svg></g></svg></g><g transform="matrix(1,0,0,1,90.05515610926568,0)"><svg viewBox="0 0 50.28968778146865 43.009490149253736" height="43.009490149253736" width="50.28968778146865"><g><svg xmlns="http://www.w3.org/2000/svg" xmlns:xlink="http://www.w3.org/1999/xlink" version="1.1" x="0" y="0" viewBox="6.49977445602417 16.5058650970459 88.43201446533203 75.63013458251953" enable-background="new 0 0 100 100" xml:space="preserve" height="43.009490149253736" width="50.28968778146865" class="icon-icon-0" data-fill-palette-color="quaternary" id="icon-0"><g fill="#f7d65a" data-fill-palette-color="quaternary"><path d="M93.508 30.614c-2.075-2.125-6.327-2.919-9.858-1.079-0.177-0.223-0.358-0.429-0.543-0.613-0.197-0.197-0.407-0.373-0.625-0.539 1.813-3.572 0.82-8.028-1.498-10.293-2.045-1.997-4.814-2.114-7.227-0.305-0.662 0.497-0.797 1.438-0.3 2.101 0.498 0.663 1.438 0.796 2.101 0.3 1.247-0.938 2.337-0.919 3.329 0.051 1.512 1.477 2.087 4.617 0.82 6.936-0.493-0.092-1.012-0.142-1.56-0.142-2.401 0-4.794 0.897-6.223 1.434l-0.3 0.112c-1.289 0.478-2.521 0.98-3.703 1.506-3.106-0.812-6.442-1.402-9.431-1.402-3.808 0-6.619 0.947-8.356 2.815-1.467 1.578-2.112 3.736-1.917 6.417 0.197 2.696 1.322 4.637 3.253 5.719-0.347 0.627-0.673 1.263-0.955 1.914-3.468 8.013-0.662 14.854-0.541 15.143l0.232 0.552 0.549 0.24c0.125 0.054 3.105 1.334 7.429 1.334 3.051 0 6.562-0.614 10.141-2.485 0.018 0.036 0.03 0.075 0.049 0.111 0.741 1.441 2.356 3.214 5.839 3.468 0.315 0.022 0.62 0.034 0.915 0.034 3.056 0 5.408-1.235 6.802-3.571 2.321-3.891 1.617-10.292 0.183-15.879 0.706-1.479 1.389-3.067 2.042-4.782 1.226-3.22 1.295-5.65 0.826-7.472 2.312-1.245 5.109-0.828 6.382 0.474 0.814 0.833 0.759 1.881-0.166 3.112-0.497 0.663-0.362 1.604 0.3 2.101 0.271 0.202 0.586 0.3 0.899 0.3 0.456 0 0.906-0.207 1.201-0.6C95.761 34.738 94.97 32.111 93.508 30.614zM79.354 58.833c-0.953 1.599-2.525 2.259-4.922 2.082-2.271-0.165-3.022-1.134-3.39-1.848-0.051-0.099-0.079-0.217-0.123-0.322-0.395-0.951-0.502-2.151-0.388-3.516 0.078-0.943 0.25-1.954 0.51-3.018 0.417-1.703 1.037-3.518 1.752-5.319 0.533-1.341 1.116-2.67 1.715-3.941 0.809-1.717 1.638-3.324 2.386-4.686l0.081 0.081c1.127 2.778 2.306 6.56 2.956 10.238C80.646 52.63 80.72 56.543 79.354 58.833zM51.21 37.694c-0.134-1.841 0.232-3.2 1.121-4.156 1.147-1.233 3.22-1.858 6.16-1.858 1.633 0 3.399 0.2 5.176 0.522 3.716 0.675 7.47 1.891 10.128 2.965l0.056 0.056c-1.245 0.682-2.87 1.532-4.683 2.389-1.244 0.589-2.576 1.178-3.938 1.719-1.776 0.707-3.597 1.321-5.331 1.739-1.172 0.282-2.3 0.469-3.349 0.529-0.237 0.014-0.479 0.031-0.707 0.031-1.146 0-2.056-0.167-2.757-0.521C51.923 40.521 51.336 39.416 51.21 37.694zM71.421 39.864l0.825 0.825c-0.592 1.208-1.195 2.521-1.768 3.889l-2.947-2.947C68.898 41.057 70.214 40.453 71.421 39.864zM62.341 43.511l6.267 6.268c-0.467 1.592-0.821 3.172-0.989 4.667l-9.933-9.932C59.169 44.342 60.745 43.985 62.341 43.511zM60.155 59.711l-8.198-8.198c0.181-1.398 0.551-2.907 1.19-4.467l11.587 11.587C63.151 59.225 61.61 59.56 60.155 59.711zM81.352 38.641c-0.186 0.487-0.374 0.961-0.564 1.426-0.787-2.304-1.593-4.218-2.178-5.388-0.074-0.28-0.224-0.531-0.438-0.727-0.195-0.214-0.449-0.364-0.73-0.437-1.188-0.601-2.924-1.333-4.974-2.049 0.068-0.025 0.133-0.053 0.201-0.078l0.31-0.116c1.239-0.465 3.312-1.242 5.169-1.242 1.228 0 2.156 0.331 2.838 1.013C82.551 32.609 82.675 35.165 81.352 38.641z" fill="#f7d65a" data-fill-palette-color="quaternary"></path><g fill="#f7d65a" data-fill-palette-color="quaternary"><path d="M44.735 66.188c-0.575 0-1.125-0.333-1.372-0.893-0.336-0.758 0.006-1.644 0.764-1.979 1.37-0.607 2.185-1.014 2.202-1.022 0.742-0.37 1.643-0.068 2.012 0.671 0.371 0.74 0.071 1.642-0.669 2.013 0 0-0.865 0.433-2.33 1.081C45.145 66.146 44.938 66.188 44.735 66.188z" fill="#f7d65a" data-fill-palette-color="quaternary"></path><path d="M15.426 90.381c-0.628 0-1.213-0.396-1.423-1.024-0.263-0.785 0.161-1.636 0.947-1.898 1.608-0.538 3.113-1.157 4.474-1.841 0.738-0.374 1.643-0.075 2.014 0.666 0.372 0.74 0.074 1.642-0.666 2.014-1.488 0.748-3.126 1.423-4.87 2.007C15.744 90.356 15.583 90.381 15.426 90.381zM24.344 85.732c-0.425 0-0.846-0.179-1.143-0.527-0.537-0.63-0.462-1.577 0.169-2.114 0.206-0.176 0.401-0.353 0.585-0.531 0.997-0.971 1.938-1.957 2.794-2.93 0.545-0.622 1.495-0.684 2.116-0.136 0.622 0.547 0.684 1.494 0.136 2.116-0.906 1.032-1.901 2.075-2.955 3.101-0.229 0.223-0.474 0.444-0.73 0.663C25.033 85.614 24.688 85.732 24.344 85.732zM30.98 78.137c-0.291 0-0.584-0.084-0.843-0.26-0.685-0.466-0.862-1.398-0.396-2.084 0.953-1.402 1.744-2.803 2.35-4.163 0.337-0.759 1.228-1.1 1.979-0.761 0.758 0.337 1.098 1.223 0.761 1.979-0.678 1.523-1.556 3.082-2.609 4.632C31.932 77.907 31.46 78.137 30.98 78.137zM25.379 71.772c-0.771 0-1.427-0.591-1.493-1.374-0.069-0.825 0.543-1.551 1.369-1.621 1.486-0.125 3.104-0.373 4.808-0.737 0.806-0.171 1.607 0.343 1.78 1.153s-0.343 1.607-1.153 1.78c-1.827 0.391-3.57 0.657-5.183 0.794C25.464 71.771 25.422 71.772 25.379 71.772zM20.336 71.707c-0.065 0-0.132-0.004-0.198-0.013-2.06-0.272-3.858-0.86-5.347-1.749-0.712-0.425-0.944-1.346-0.52-2.057 0.426-0.713 1.347-0.943 2.057-0.52 1.136 0.678 2.55 1.133 4.202 1.351 0.821 0.108 1.399 0.862 1.291 1.684C21.722 71.158 21.077 71.707 20.336 71.707zM35.267 69.73c-0.643 0-1.237-0.417-1.435-1.063-0.03-0.1-0.05-0.2-0.059-0.3-0.26-0.32-0.387-0.745-0.315-1.185 0.12-0.744 0.181-1.484 0.181-2.2 0-0.782-0.073-1.558-0.217-2.304-0.157-0.813 0.375-1.601 1.188-1.757 0.807-0.156 1.6 0.374 1.757 1.188 0.181 0.934 0.271 1.899 0.271 2.872 0 0.413-0.017 0.832-0.049 1.253 0.966-0.32 1.948-0.668 2.938-1.04 0.772-0.291 1.639 0.102 1.932 0.877 0.291 0.775-0.102 1.641-0.877 1.932-1.656 0.622-3.298 1.182-4.878 1.662C35.559 69.71 35.411 69.73 35.267 69.73zM12.181 66.5c-0.551 0-1.081-0.305-1.344-0.831-0.697-1.4-1.146-3.044-1.329-4.884-0.02-0.186-0.035-0.373-0.047-0.558-0.054-0.826 0.573-1.54 1.4-1.594 0.838-0.059 1.54 0.573 1.594 1.4 0.01 0.147 0.021 0.296 0.037 0.448 0.148 1.48 0.495 2.774 1.03 3.849 0.369 0.741 0.067 1.642-0.674 2.012C12.634 66.449 12.405 66.5 12.181 66.5zM33.009 59.24c-0.489 0-0.97-0.239-1.258-0.681-0.805-1.234-1.845-2.341-3.093-3.289-0.66-0.501-0.788-1.441-0.287-2.102s1.441-0.789 2.102-0.287c1.522 1.156 2.799 2.516 3.792 4.039 0.452 0.694 0.256 1.624-0.438 2.076C33.574 59.162 33.29 59.24 33.009 59.24zM11.763 56.698c-0.215 0-0.434-0.046-0.641-0.145-0.749-0.354-1.068-1.248-0.714-1.997 0.869-1.837 2.327-3.289 4.217-4.2 0.744-0.361 1.643-0.047 2.002 0.699 0.36 0.746 0.047 1.643-0.699 2.003-1.282 0.618-2.228 1.554-2.809 2.781C12.863 56.382 12.324 56.698 11.763 56.698zM25.136 53.179c-0.169 0-0.341-0.028-0.509-0.089-1.474-0.531-3.018-0.827-4.467-0.855-0.828-0.017-1.486-0.701-1.47-1.53 0.017-0.828 0.696-1.437 1.53-1.47 1.771 0.035 3.646 0.393 5.424 1.033 0.779 0.281 1.184 1.141 0.902 1.92C26.326 52.799 25.75 53.179 25.136 53.179z" fill="#f7d65a" data-fill-palette-color="quaternary"></path><path d="M7.998 92.136c-0.734 0-1.376-0.54-1.483-1.288-0.117-0.82 0.453-1.58 1.273-1.697 0.783-0.111 1.583-0.25 2.377-0.412 0.812-0.164 1.604 0.357 1.77 1.17 0.165 0.812-0.358 1.604-1.17 1.77C9.913 91.852 9.054 92 8.212 92.121 8.141 92.131 8.068 92.136 7.998 92.136z" fill="#f7d65a" data-fill-palette-color="quaternary"></path></g></g></svg></g></svg></g><g></g></svg></g></svg></g></svg></g><defs></defs></svg><rect width="576" height="360" fill="none" stroke="none" visibility="hidden"></rect></g></svg></g></svg>